<?xml version="1.0" encoding="utf-8"?>
<!-- Generator: Adobe Illustrator 15.0.0, SVG Export Plug-In . SVG Version: 6.00 Build 0)  -->
<!DOCTYPE svg PUBLIC "-//W3C//DTD SVG 1.1//EN" "http://www.w3.org/Graphics/SVG/1.1/DTD/svg11.dtd">
<svg version="1.1" id="Layer_1" xmlns="http://www.w3.org/2000/svg" xmlns:xlink="http://www.w3.org/1999/xlink" x="0px" y="0px"
	 width="70.388px" height="105.825px" viewBox="0 0 70.388 105.825" enable-background="new 0 0 70.388 105.825"
	 xml:space="preserve">
<path fill="#00A060" d="M46.048,54.264c-4.904-9.477-4.344-15.299-4.344-15.299s-5.985-0.259-12.402,1.332
	c0.094,0.825,0.485,4.49-4.418,13.967"/>
<path fill="#00A060" d="M30.264,10.259c11.816-1.786,22.431,0.328,28.496,5.128c-4.785-6.641-12.527-10.9-21.523-11.492
	c-13.405-0.879-25.253,6.702-28.981,17.92C13.819,16.191,21.563,11.574,30.264,10.259"/>
<path fill="#00A060" d="M14.229,45.336c4.344-5.336,14.376-9.203,26.133-9.442c7.969-0.16,14.682,1.178,19.941,3.788
	c1.215-2.379,1.992-3.995,2.723-8.587c-5.408-4.929-16.047-6.229-27.969-2.622c-9.07,2.744-16.946,8.782-22.127,15.443
	C13.245,44.282,13.677,44.757,14.229,45.336"/>
<path fill="#00A060" d="M34.423,23.53c11.998-1.824,22.75,0.535,28.711,5.548c0-4.036-0.91-7.345-2.402-10.47
	c-5.34-5.094-16.535-6.477-28.617-2.821C21.484,19.003,12.82,26.219,7.887,34.185c0.154,0.669,0.338,1.328,0.548,1.979
	C13.779,29.886,23.128,25.247,34.423,23.53"/>
<path fill="#00A060" d="M58.203,40.481c0.533,0.349,0.717,0.752,0.709,1.151c-0.016,0.672-0.771,1.294-2.014,1.71
	c-3.211,1.154-6.781,0.991-6.781,0.991c1.693-3.303,1.91-5.944,1.91-5.944S55.662,38.991,58.203,40.481"/>
<path fill="#FFD100" d="M66.164,79.281c-44,4.164-62.283,22.718-62.283,22.718V83.69c0,0,26.383-11.371,62.283-10.431"/>
<rect x="52.634" y="61.033" fill="#00A060" width="4.332" height="8.18"/>
<rect x="3.327" y="61.034" fill="#00A060" width="4.333" height="10.656"/>
<rect x="8.677" y="61.033" fill="#00A060" width="4.333" height="8.18"/>
<path fill="#00A060" d="M51.681,69.212h-3.779v-6.136h-4.168v-2.043h6.314c0.9,0,1.633,0.749,1.633,1.671"/>
<path fill="#00A060" d="M65.427,61.034c0.902,0,1.635,0.749,1.635,1.671v0.372h-1.008v6.137h-3.779v-6.137h-4.164v-2.043"/>
<path fill="#00A060" d="M34.381,69.212h5.161l-3.179-3.101c0,0,2.669,0.277,2.669-1.876v-3.202h-3.775v2.814
	c0,0,0.015,0.642-0.37,0.994l-3.548-3.809h-4.731l2.727,2.869c0,0-2.926-0.013-2.926,2.32v2.989h3.778v-2.817
	c0,0-0.071-0.796,0.421-1.152"/>
<path fill="#00A060" d="M21.192,63.502l-3.572,5.711h4.377l3.422-6.015c0.095-0.204,0.131-0.401,0.131-0.622
	c0-0.839-0.67-1.521-1.503-1.542l-0.001-0.001h-5.698v-2.171H14.57v4.214h6.359c0.162,0,0.294,0.132,0.294,0.294
	C21.224,63.418,21.212,63.462,21.192,63.502"/>
</svg>
